<?xml version="1.0" standalone="no"?>
<!DOCTYPE svg PUBLIC "-//W3C//DTD SVG 20010904//EN"
 "http://www.w3.org/TR/2001/REC-SVG-20010904/DTD/svg10.dtd">
<svg version="1.0" xmlns="http://www.w3.org/2000/svg"
 width="300.000000pt" height="300.000000pt" viewBox="0 0 360.000000 360.000000"
 preserveAspectRatio="xMidYMid meet">

<g transform="translate(0.000000,360.000000) scale(0.100000,-0.100000)"
fill="red" stroke="none">
<path d="M2240 2545 c0 -40 -56 -99 -140 -147 -25 -14 -57 -37 -72 -49 -74
-65 -84 -69 -101 -52 -15 15 -18 15 -34 2 -25 -21 -104 -49 -139 -50 -16 0
-47 3 -69 8 -37 8 -41 12 -51 53 -9 34 -13 41 -19 27 -6 -14 -10 -15 -21 -6
-11 9 -14 6 -14 -14 0 -16 -8 -31 -19 -37 -26 -13 -34 -13 -25 2 4 7 8 40 9
74 1 56 -2 64 -23 73 -43 20 -71 14 -118 -26 -18 -15 -19 -21 -8 -43 53 -104
55 -122 14 -160 -31 -29 -40 -70 -17 -88 6 -5 26 -13 44 -17 18 -3 44 -15 58
-26 14 -11 52 -31 85 -44 33 -13 67 -31 76 -39 8 -9 22 -16 29 -16 11 0 14
-17 13 -67 0 -38 5 -81 11 -96 6 -16 11 -39 11 -52 0 -29 7 -47 65 -154 25
-46 45 -92 45 -102 0 -26 -51 -39 -159 -40 -53 -1 -127 -4 -166 -8 l-70 -6
100 -8 c125 -9 491 -8 605 2 78 7 80 8 30 11 -30 1 -102 5 -160 9 l-104 6 -12
35 c-7 19 -19 66 -28 104 -9 40 -25 80 -38 93 -20 22 -21 26 -9 115 7 51 20
113 29 138 9 25 15 51 13 58 -3 18 27 82 39 82 6 0 10 5 10 11 0 16 107 146
137 166 14 10 58 48 97 84 39 37 80 69 91 71 13 2 21 12 23 28 2 14 8 35 13
46 6 12 9 30 7 40 -4 24 -38 32 -38 9z m-410 -340 c0 -13 -64 -35 -102 -35
-71 0 -83 20 -13 21 33 0 69 4 80 9 24 10 35 12 35 5z"/>
<path d="M1333 2373 c9 -2 23 -2 30 0 6 3 -1 5 -18 5 -16 0 -22 -2 -12 -5z"/>
<path d="M1366 2354 c-11 -7 -17 -16 -15 -19 3 -3 14 2 25 9 10 8 17 17 14 19
-3 3 -14 -1 -24 -9z"/>
<path d="M930 1265 c0 -51 3 -65 15 -65 10 0 15 10 15 33 l0 32 26 -30 c14
-17 27 -25 30 -19 3 6 11 20 19 30 13 18 14 17 15 -13 0 -23 5 -33 15 -33 12
0 15 14 15 65 0 36 -4 65 -10 65 -5 0 -22 -18 -37 -41 l-27 -41 -24 41 c-36
62 -52 54 -52 -24z"/>
<path d="M1197 1323 c-4 -3 -7 -26 -7 -50 0 -70 47 -103 98 -67 18 12 22 25
22 70 0 40 -4 54 -14 54 -11 0 -16 -15 -18 -52 -2 -42 -7 -54 -22 -56 -25 -5
-36 14 -36 66 0 39 -8 51 -23 35z"/>
<path d="M1437 1272 c-31 -69 -32 -72 -12 -72 8 0 15 5 15 10 0 6 16 10 35 10
19 0 35 -4 35 -10 0 -5 9 -10 20 -10 18 0 18 3 -9 63 -15 34 -35 63 -43 65
-10 2 -24 -17 -41 -56z m53 -8 c0 -8 -7 -14 -15 -14 -17 0 -18 2 -9 24 7 18
24 12 24 -10z"/>
<path d="M1644 1286 c14 -25 26 -54 26 -65 0 -12 6 -21 15 -21 9 0 15 9 15 23
0 12 11 39 25 59 29 43 30 48 10 48 -8 0 -22 -14 -31 -31 l-16 -31 -19 31
c-10 17 -26 31 -35 31 -13 0 -11 -8 10 -44z"/>
<path d="M1970 1315 c0 -8 9 -15 20 -15 17 0 20 -7 20 -50 0 -38 4 -50 15 -50
11 0 15 12 15 50 0 43 3 50 20 50 11 0 20 7 20 15 0 12 -13 15 -55 15 -42 0
-55 -3 -55 -15z"/>
<path d="M2180 1265 c0 -51 3 -65 15 -65 9 0 15 9 15 25 0 21 5 25 30 25 25 0
30 -4 30 -25 0 -16 6 -25 15 -25 12 0 15 14 15 65 0 50 -3 65 -14 65 -8 0 -16
-12 -18 -27 -2 -21 -9 -27 -30 -28 -24 -1 -28 3 -28 27 0 18 -5 28 -15 28 -12
0 -15 -14 -15 -65z"/>
<path d="M2426 1269 c-31 -71 -30 -69 -11 -69 8 0 15 5 15 10 0 14 63 13 77
-1 6 -6 16 -10 21 -8 15 6 -44 129 -61 129 -8 0 -26 -27 -41 -61z m49 -17
c-22 -5 -27 1 -19 23 7 17 8 17 21 -1 12 -17 12 -19 -2 -22z"/>
<path d="M2640 1265 c0 -51 3 -65 15 -65 12 0 15 14 15 65 0 51 -3 65 -15 65
-12 0 -15 -14 -15 -65z"/>
<path d="M1520 1069 c0 -27 2 -29 15 -15 8 8 15 22 15 30 0 9 -7 16 -15 16
-10 0 -15 -10 -15 -31z"/>
<path d="M1600 1068 c0 -25 3 -29 10 -18 9 13 11 13 20 0 7 -11 9 -7 7 15 -2
19 -9 31 -20 33 -13 3 -17 -4 -17 -30z m30 12 c0 -5 -4 -10 -10 -10 -5 0 -10
5 -10 10 0 6 5 10 10 10 6 0 10 -4 10 -10z"/>
<path d="M1687 1093 c-10 -9 -8 -53 2 -53 4 0 8 10 7 23 -1 12 3 25 9 29 7 5
6 8 -1 8 -6 0 -14 -3 -17 -7z"/>
<path d="M1766 1075 c-4 -15 -5 -30 -1 -33 3 -3 5 3 5 14 1 19 1 19 15 0 18
-24 19 -9 1 23 l-13 24 -7 -28z"/>
<path d="M1806 1085 c-3 -8 -1 -15 4 -15 6 0 10 7 10 15 0 8 -2 15 -4 15 -2 0
-6 -7 -10 -15z"/>
<path d="M1872 1070 c0 -19 2 -27 5 -17 2 9 2 25 0 35 -3 9 -5 1 -5 -18z"/>
<path d="M1931 1073 c-1 -27 3 -33 19 -33 13 0 20 6 19 18 0 10 -3 12 -6 5 -8
-22 -21 -14 -26 15 -4 25 -4 25 -6 -5z"/>
<path d="M2027 1094 c-4 -4 -7 -19 -6 -33 l0 -26 10 24 c10 26 8 47 -4 35z"/>
<path d="M2066 1091 c-4 -5 -2 -20 3 -33 9 -21 10 -21 10 10 1 32 -3 39 -13
23z"/>
<path d="M2040 1061 c0 -5 5 -13 10 -16 6 -3 10 -2 10 4 0 5 -4 13 -10 16 -5
3 -10 2 -10 -4z"/>
</g>
</svg>
